<?xml version="1.0" encoding="UTF-8"?>
<svg version="1.1" xmlns="http://www.w3.org/2000/svg" width="512" height="512">
<path d="M0 0 C2.75322769 -0.00323199 5.50642888 -0.01241358 8.25964355 -0.02124023 C14.92397792 -0.03890968 21.58813081 -0.03523765 28.25247192 -0.02358967 C33.67479933 -0.01450959 39.09707633 -0.01335097 44.51940918 -0.01768494 C45.29484943 -0.01829787 46.07028968 -0.0189108 46.86922812 -0.01954231 C48.44513863 -0.02082137 50.02104912 -0.02211823 51.59695959 -0.02343267 C66.33072108 -0.03480455 81.06438257 -0.02177827 95.79812765 -0.00023121 C108.40583303 0.01763669 121.01339103 0.01453163 133.62109375 -0.00390625 C148.30666143 -0.02537319 162.99214175 -0.03370624 177.67772293 -0.0214572 C179.24742888 -0.02018317 180.81713484 -0.01892568 182.38684082 -0.01768494 C183.15891302 -0.01706783 183.93098522 -0.01645073 184.72645354 -0.01581493 C190.13434833 -0.01237944 195.54218713 -0.01815121 200.95007324 -0.02760315 C207.55185496 -0.03888955 214.15344675 -0.03564506 220.75520706 -0.01448017 C224.11550237 -0.00405783 227.47522466 -0.00189356 230.83555603 -0.01307678 C258.9091736 -0.0978436 282.48121192 4.9739068 304.453125 23.51757812 C305.46375 24.28070313 306.474375 25.04382813 307.515625 25.83007812 C324.54139195 41.40684363 336.44445093 65.08900541 337.82696533 88.24563599 C338.01596953 93.40369631 337.99501678 98.56005132 337.97070312 103.72070312 C337.97613827 105.68575556 337.98326866 107.65080392 337.99194336 109.61584473 C338.0100142 114.90103861 338.00317699 120.18591646 337.99042702 125.47111511 C337.98021439 131.0338112 337.98971542 136.5964824 337.99597168 142.15917969 C338.00322422 151.49614255 337.99372348 160.83297836 337.97460938 170.16992188 C337.95284535 180.92469085 337.95989841 191.67915637 337.981915 202.433918 C338.00013748 211.71090901 338.00259399 220.98780932 337.99216032 230.26481247 C337.98596289 235.78665888 337.98498544 241.30836323 337.99830627 246.8302002 C338.0099644 252.02449057 338.00165934 257.2183943 337.97872925 262.41264343 C337.97349489 264.30510317 337.97486392 266.19759614 337.98377991 268.09004211 C338.10492125 296.44308372 328.9605857 320.60649691 309.453125 341.51757812 C288.15294803 361.58342092 263.0249382 369.16859341 234.52539062 369.03173828 C232.58989406 369.03721379 230.65440185 369.0444637 228.71891785 369.05332947 C224.58631478 369.06854608 220.45395951 369.07151895 216.32133484 369.06456375 C209.7706451 369.05367856 203.22020929 369.07127522 196.66955566 369.09237671 C186.2993172 369.12252151 175.92915517 369.13432022 165.55887651 369.13795316 C147.00547547 369.14461597 128.45212809 369.17387652 109.89879179 369.22304952 C103.40300431 369.2394263 96.907328 369.2449881 90.41152191 369.24145913 C86.35394859 369.24101838 82.29641638 369.24864091 78.23885536 369.25813484 C76.37541687 369.26078995 74.51196975 369.26011385 72.64853477 369.25562477 C33.54573261 369.16802867 9.35261806 380.45582167 -18.546875 407.51757812 C-20.35369915 409.34048336 -22.155014 411.16777979 -23.94238281 413.00976562 C-27.38515004 416.24508674 -30.88465971 418.24619604 -35.609375 419.01757812 C-39.39487178 418.37323825 -41.56011137 416.89341283 -44.546875 414.51757812 C-46.92929095 410.9439542 -46.82321096 409.26046597 -46.890625 405.01367188 C-46.93509766 403.06557617 -46.93509766 403.06557617 -46.98046875 401.078125 C-47.00365458 399.70379336 -47.02578333 398.3294435 -47.046875 396.95507812 C-47.12429532 377.99079014 -47.12429532 377.99079014 -55.546875 361.51757812 C-59.00676886 358.52047262 -62.72086177 356.02215707 -66.546875 353.51757812 C-90.14554517 337.63714162 -104.64925745 315.92919436 -110.15571213 287.95763588 C-111.35400604 280.4827282 -111.10001157 272.86184625 -111.06445312 265.31445312 C-111.06988827 263.34940069 -111.07701866 261.38435233 -111.08569336 259.41931152 C-111.1037642 254.13411764 -111.09692699 248.84923979 -111.08417702 243.56404114 C-111.07396439 238.00134505 -111.08346542 232.43867385 -111.08972168 226.87597656 C-111.09697422 217.5390137 -111.08747348 208.20217789 -111.06835938 198.86523438 C-111.04659535 188.1104654 -111.05364841 177.35599988 -111.075665 166.60123825 C-111.09388748 157.32424724 -111.09634399 148.04734693 -111.08591032 138.77034378 C-111.07971289 133.24849737 -111.07873544 127.72679302 -111.09205627 122.20495605 C-111.1037144 117.01066568 -111.09540934 111.81676195 -111.07247925 106.62251282 C-111.06724489 104.73005308 -111.06861392 102.83756011 -111.07752991 100.94511414 C-111.19860633 72.6072649 -102.06492682 48.40732319 -82.546875 27.51757812 C-58.37747758 5.02709687 -31.9140901 -0.10621051 0 0 Z M-11.546875 118.51757812 C-14.94970565 125.52923075 -14.97367014 131.8955496 -14.93505859 139.59960938 C-14.94031555 140.8949057 -14.94557251 142.19020203 -14.95098877 143.52474976 C-14.96459633 147.05784509 -14.95939113 150.59067587 -14.94985151 154.12377548 C-14.94222069 157.83293078 -14.94930999 161.54206445 -14.95401001 165.2512207 C-14.95945764 171.47839394 -14.9523021 177.70546021 -14.93798828 183.93261719 C-14.92166362 191.11724706 -14.92695283 198.30162147 -14.9434675 205.48624516 C-14.95711075 211.67079119 -14.95898819 217.85526062 -14.95115149 224.03981686 C-14.94649053 227.72658916 -14.94580643 231.41324165 -14.95576096 235.1000061 C-14.96608945 239.21200526 -14.95174705 243.32356862 -14.93505859 247.43554688 C-14.94113129 248.64721527 -14.94720398 249.85888367 -14.95346069 251.10726929 C-14.89660832 258.68088498 -14.61430841 265.2014339 -9.234375 271.01757812 C-2.3792803 273.80609122 5.2855303 273.80609122 12.140625 271.01757812 C17.61695582 265.09722048 17.88556567 258.16562534 17.859375 250.50585938 C17.87021118 249.57460739 17.88104736 248.64335541 17.89221191 247.68388367 C17.93779783 243.73160529 17.94957498 239.77939848 17.96435547 235.8269043 C17.98005487 232.92798616 18.0130404 230.0296134 18.046875 227.13085938 C18.04385376 226.24118973 18.04083252 225.35152008 18.03771973 224.43489075 C18.0952244 219.68774791 18.23869002 216.29035282 21.453125 212.51757812 C26.28675798 208.91664727 33.38064729 210.1847406 39.15209961 210.2019043 C41.37989285 210.20506291 43.60635528 210.18159473 45.83398438 210.15625 C47.25781083 210.15397659 48.68164084 210.15327371 50.10546875 210.15429688 C51.39445068 210.15131592 52.68343262 210.14833496 54.01147461 210.14526367 C57.71327524 210.54572093 59.55851952 211.20900707 62.453125 213.51757812 C64.17881045 216.35791003 64.7050427 218.48854461 64.72436523 221.79199219 C64.73964516 223.0441452 64.73964516 223.0441452 64.75523376 224.32159424 C64.75737381 225.21642517 64.75951385 226.1112561 64.76171875 227.03320312 C64.78688727 228.94336231 64.81228516 230.85351849 64.83789062 232.76367188 C64.86656703 235.76317505 64.89059391 238.76262575 64.90942383 241.76220703 C64.93119597 244.66531892 64.97065188 247.56780914 65.01171875 250.47070312 C65.01189247 251.80080414 65.01189247 251.80080414 65.0120697 253.15777588 C65.1186889 259.93101327 65.99208369 265.85699293 70.765625 271.01757812 C77.6207197 273.80609122 85.2855303 273.80609122 92.140625 271.01757812 C98.37126132 264.28175508 97.88468377 256.09008223 97.84130859 247.43554688 C97.84656555 246.14025055 97.85182251 244.84495422 97.85723877 243.51040649 C97.87084633 239.97731116 97.86564113 236.44448038 97.85610151 232.91138077 C97.84847069 229.20222547 97.85555999 225.4930918 97.86026001 221.78393555 C97.86570764 215.55676231 97.8585521 209.32969604 97.84423828 203.10253906 C97.82791362 195.91790919 97.83320283 188.73353478 97.8497175 181.54891109 C97.86336075 175.36436506 97.86523819 169.17989563 97.85740149 162.99533939 C97.85274053 159.30856709 97.85205643 155.6219146 97.86201096 151.93515015 C97.87233945 147.82315099 97.85799705 143.71158763 97.84130859 139.59960938 C97.84738129 138.38794098 97.85345398 137.17627258 97.85971069 135.92788696 C97.80285832 128.35427127 97.52055841 121.83372235 92.140625 116.01757812 C85.2855303 113.22906503 77.6207197 113.22906503 70.765625 116.01757812 C65.28929418 121.93793577 65.02068433 128.86953091 65.046875 136.52929688 C65.03062073 137.92617485 65.03062073 137.92617485 65.01403809 139.35127258 C64.96845217 143.30355096 64.95667502 147.25575777 64.94189453 151.20825195 C64.92619513 154.10717009 64.8932096 157.00554285 64.859375 159.90429688 C64.86239624 160.79396652 64.86541748 161.68363617 64.86853027 162.6002655 C64.8110256 167.34740834 64.66755998 170.74480343 61.453125 174.51757812 C56.61949202 178.11850898 49.52560271 176.85041565 43.75415039 176.83325195 C41.52635715 176.83009334 39.29989472 176.85356152 37.07226562 176.87890625 C35.64843917 176.88117966 34.22460916 176.88188254 32.80078125 176.88085938 C31.51179932 176.88384033 30.22281738 176.88682129 28.89477539 176.88989258 C25.19297476 176.48943532 23.34773048 175.82614918 20.453125 173.51757812 C18.72743955 170.67724622 18.2012073 168.54661164 18.18188477 165.24316406 C18.17169815 164.40839539 18.16151154 163.57362671 18.15101624 162.71356201 C18.14887619 161.81873108 18.14673615 160.92390015 18.14453125 160.00195312 C18.11936273 158.09179394 18.09396484 156.18163776 18.06835938 154.27148438 C18.03968297 151.2719812 18.01565609 148.2725305 17.99682617 145.27294922 C17.97505403 142.36983733 17.93559812 139.46734711 17.89453125 136.56445312 C17.89441544 135.67771912 17.89429962 134.79098511 17.8941803 133.87738037 C17.7875611 127.10414298 16.91416631 121.17816332 12.140625 116.01757812 C4.75595679 113.01364529 -5.76604733 112.26803469 -11.546875 118.51757812 Z M132.453125 118.51757812 C129.53335 124.82147788 128.98908828 130.12217866 129.078125 137.01757812 C129.06652344 137.91605469 129.05492187 138.81453125 129.04296875 139.74023438 C129.0688742 145.67258139 129.93076538 150.12972166 132.453125 155.51757812 C137.12761279 159.96404212 142.21634723 160.59897164 148.453125 160.51757812 C153.53021158 159.55963726 156.1947952 157.49998121 159.453125 153.51757812 C161.85032294 148.1217946 161.78602754 142.93690058 161.765625 137.14257812 C161.78173828 136.23507813 161.79785156 135.32757813 161.81445312 134.39257812 C161.81949121 127.39971348 161.07741506 121.35464846 156.140625 116.01757812 C148.75595679 113.01364529 138.23395267 112.26803469 132.453125 118.51757812 Z M189.453125 118.51757812 C185.07003005 127.47121957 186.61346635 136.82927902 187.3671875 146.45507812 C187.50005623 148.30386592 187.63165726 150.15274522 187.76205444 152.00170898 C188.03848249 155.86568374 188.32726787 159.72846774 188.62548828 163.59082031 C189.00564454 168.52186809 189.35937586 173.45436767 189.70438576 178.38798523 C189.97334839 182.20295997 190.25410742 186.01699464 190.53858566 189.83084106 C190.67320039 191.64854467 190.80474577 193.46647847 190.93306351 195.28463745 C191.11518367 197.83336853 191.31263603 200.38047322 191.51416016 202.92773438 C191.56419189 203.66669952 191.61422363 204.40566467 191.66577148 205.16702271 C192.20393084 211.61417729 193.26624577 218.27462507 197.890625 223.01757812 C203.47154756 226.28445962 210.27156249 226.45032742 216.51953125 225.05664062 C221.14663089 223.35770555 223.22559405 220.8012915 225.453125 216.51757812 C226.42654312 212.61148821 226.73531948 208.72698145 227.02563477 204.71801758 C227.09900558 203.72153702 227.09900558 203.72153702 227.17385864 202.70492554 C227.33415856 200.51380204 227.4896285 198.32237062 227.64453125 196.13085938 C227.75510697 194.58928244 227.86578068 193.04771253 227.97654724 191.50614929 C228.20825583 188.26915051 228.43731535 185.03197632 228.66479492 181.79467773 C228.95301328 177.69883721 229.24989244 173.60367816 229.54918003 169.50863361 C229.78096863 166.31793314 230.0068159 163.12683058 230.23115349 159.93559837 C230.33793971 158.42918548 230.44670812 156.92291144 230.55771065 155.41680336 C230.92198361 150.45290304 231.228429 145.48982893 231.453125 140.51757812 C231.48894054 139.72686794 231.52475609 138.93615776 231.56165695 138.12148666 C231.65750547 135.68859871 231.71889293 133.25721612 231.76928711 130.82299805 C231.81358652 129.70976024 231.81358652 129.70976024 231.85878086 128.57403278 C231.91275436 123.38074199 230.71904993 120.51466857 227.453125 116.51757812 C222.52038227 112.91892103 215.39080949 114.14845546 209.578125 114.14257812 C208.31097656 114.11808594 207.04382813 114.09359375 205.73828125 114.06835938 C196.69975154 113.79536304 196.69975154 113.79536304 189.453125 118.51757812 Z M132.453125 182.51757812 C128.56439037 190.12388211 129.01592575 197.99240906 129.0546875 206.33007812 C129.05266301 207.86889788 129.04974845 209.4077167 129.04598999 210.9465332 C129.04158427 214.16073809 129.04794077 217.37469168 129.06201172 220.58886719 C129.07910277 224.69092314 129.06925212 228.79239005 129.05129433 232.89442444 C129.04040883 236.06877002 129.04392456 239.24297795 129.0516777 242.41732788 C129.05366657 243.9290677 129.05126704 245.44082037 129.04423904 246.95254517 C128.72873718 259.95402271 128.72873718 259.95402271 134.765625 271.01757812 C141.6207197 273.80609122 149.2855303 273.80609122 156.140625 271.01757812 C162.93249471 263.67501628 161.89506464 254.06240596 161.8515625 244.70507812 C161.85358699 243.16625837 161.85650155 241.62743955 161.86026001 240.08862305 C161.86466573 236.87441816 161.85830923 233.66046457 161.84423828 230.44628906 C161.82714723 226.34423311 161.83699788 222.2427662 161.85495567 218.14073181 C161.86584117 214.96638623 161.86232544 211.7921783 161.8545723 208.61782837 C161.85258343 207.10608855 161.85498296 205.59433588 161.86201096 204.08261108 C162.17751282 191.08113354 162.17751282 191.08113354 156.140625 180.01757812 C148.75595679 177.01364529 138.23395267 176.26803469 132.453125 182.51757812 Z M196.453125 246.51757812 C193.13638045 251.77734095 193.10969148 256.98437479 193.87109375 263.02539062 C194.98520629 267.79588594 197.51456071 269.8918686 201.453125 272.51757812 C207.26371 273.64868101 213.07425686 274.33508049 218.453125 271.51757812 C222.43552809 268.25924833 224.49518414 265.59466471 225.453125 260.51757812 C225.53585472 254.1784133 224.75265929 249.4313316 220.453125 244.51757812 C213.88666133 240.15997066 201.77884305 240.7600451 196.453125 246.51757812 Z " fill="#868EE8" transform="translate(142.546875,63.482421875)"/>
</svg>
